<mxfile host="app.diagrams.net" modified="2022-11-24T01:39:04.970Z" agent="5.0 (Windows NT 10.0; Win64; x64) AppleWebKit/537.36 (KHTML, like Gecko) Chrome/107.0.0.0 Safari/537.36" etag="4ftJeIFI6CiZ8J8HUn5L" version="20.6.0" type="github">
  <diagram id="C5RBs43oDa-KdzZeNtuy" name="Page-1">
    <mxGraphModel dx="581" dy="524" grid="1" gridSize="10" guides="1" tooltips="1" connect="1" arrows="1" fold="1" page="1" pageScale="1" pageWidth="827" pageHeight="1169" math="0" shadow="0">
      <root>
        <mxCell id="WIyWlLk6GJQsqaUBKTNV-0" />
        <mxCell id="WIyWlLk6GJQsqaUBKTNV-1" parent="WIyWlLk6GJQsqaUBKTNV-0" />
        <mxCell id="McaCAcof2hRRueGIzk1--2" value="" style="edgeStyle=orthogonalEdgeStyle;rounded=0;orthogonalLoop=1;jettySize=auto;html=1;" edge="1" parent="WIyWlLk6GJQsqaUBKTNV-1" source="McaCAcof2hRRueGIzk1--0" target="McaCAcof2hRRueGIzk1--1">
          <mxGeometry relative="1" as="geometry" />
        </mxCell>
        <mxCell id="McaCAcof2hRRueGIzk1--0" value="开始" style="rounded=1;whiteSpace=wrap;html=1;" vertex="1" parent="WIyWlLk6GJQsqaUBKTNV-1">
          <mxGeometry x="290" y="30" width="110" height="30" as="geometry" />
        </mxCell>
        <mxCell id="McaCAcof2hRRueGIzk1--4" value="" style="edgeStyle=orthogonalEdgeStyle;rounded=0;orthogonalLoop=1;jettySize=auto;html=1;" edge="1" parent="WIyWlLk6GJQsqaUBKTNV-1" source="McaCAcof2hRRueGIzk1--1" target="McaCAcof2hRRueGIzk1--3">
          <mxGeometry relative="1" as="geometry" />
        </mxCell>
        <mxCell id="McaCAcof2hRRueGIzk1--1" value="光电混合网表" style="shape=parallelogram;perimeter=parallelogramPerimeter;whiteSpace=wrap;html=1;fixedSize=1;rounded=1;" vertex="1" parent="WIyWlLk6GJQsqaUBKTNV-1">
          <mxGeometry x="285" y="80" width="120" height="60" as="geometry" />
        </mxCell>
        <mxCell id="McaCAcof2hRRueGIzk1--6" value="" style="edgeStyle=orthogonalEdgeStyle;rounded=0;orthogonalLoop=1;jettySize=auto;html=1;" edge="1" parent="WIyWlLk6GJQsqaUBKTNV-1" source="McaCAcof2hRRueGIzk1--3" target="McaCAcof2hRRueGIzk1--5">
          <mxGeometry relative="1" as="geometry" />
        </mxCell>
        <mxCell id="McaCAcof2hRRueGIzk1--3" value="光电模块划分" style="whiteSpace=wrap;html=1;rounded=1;" vertex="1" parent="WIyWlLk6GJQsqaUBKTNV-1">
          <mxGeometry x="285" y="160" width="120" height="60" as="geometry" />
        </mxCell>
        <mxCell id="McaCAcof2hRRueGIzk1--8" value="" style="edgeStyle=orthogonalEdgeStyle;rounded=0;orthogonalLoop=1;jettySize=auto;html=1;" edge="1" parent="WIyWlLk6GJQsqaUBKTNV-1" source="McaCAcof2hRRueGIzk1--5" target="McaCAcof2hRRueGIzk1--7">
          <mxGeometry relative="1" as="geometry" />
        </mxCell>
        <mxCell id="McaCAcof2hRRueGIzk1--5" value="各模块仿真顺序确定" style="whiteSpace=wrap;html=1;rounded=1;" vertex="1" parent="WIyWlLk6GJQsqaUBKTNV-1">
          <mxGeometry x="285" y="240" width="120" height="60" as="geometry" />
        </mxCell>
        <mxCell id="McaCAcof2hRRueGIzk1--10" value="" style="edgeStyle=orthogonalEdgeStyle;rounded=0;orthogonalLoop=1;jettySize=auto;html=1;" edge="1" parent="WIyWlLk6GJQsqaUBKTNV-1" source="McaCAcof2hRRueGIzk1--7" target="McaCAcof2hRRueGIzk1--9">
          <mxGeometry relative="1" as="geometry" />
        </mxCell>
        <mxCell id="McaCAcof2hRRueGIzk1--7" value="光和电转换入口确定" style="whiteSpace=wrap;html=1;rounded=1;" vertex="1" parent="WIyWlLk6GJQsqaUBKTNV-1">
          <mxGeometry x="285" y="320" width="120" height="60" as="geometry" />
        </mxCell>
        <mxCell id="McaCAcof2hRRueGIzk1--9" value="All circuit be compiled?" style="rhombus;whiteSpace=wrap;html=1;rounded=1;" vertex="1" parent="WIyWlLk6GJQsqaUBKTNV-1">
          <mxGeometry x="282.5" y="400" width="125" height="60" as="geometry" />
        </mxCell>
      </root>
    </mxGraphModel>
  </diagram>
</mxfile>
